<svg id="svg" version="1.1" xmlns="http://www.w3.org/2000/svg" xmlns:xlink="http://www.w3.org/1999/xlink" width="400" height="199.72413793103448" viewBox="0, 0, 400,199.72413793103448"><g id="svgg"><path id="path0" d="M53.425 23.916 C 48.765 24.170,48.978 24.055,49.991 25.759 C 50.819 27.151,52.259 29.814,53.712 32.644 C 54.284 33.756,55.277 35.660,55.919 36.874 C 56.561 38.087,57.308 39.701,57.579 40.460 L 58.071 41.839 65.403 41.953 C 79.436 42.172,84.290 43.344,89.535 47.779 C 93.342 50.998,95.717 57.788,95.865 65.877 L 95.908 68.213 96.202 67.348 C 96.363 66.872,97.848 62.138,99.501 56.828 C 103.272 44.710,102.951 45.201,107.795 44.142 C 116.255 42.294,129.510 42.203,133.498 43.967 C 136.286 45.200,136.028 44.570,142.225 65.287 C 145.206 75.251,148.019 84.644,148.477 86.161 L 149.310 88.920 149.325 70.161 C 149.341 49.339,149.300 50.065,150.541 48.393 C 153.508 44.396,166.128 41.408,172.874 43.106 C 176.008 43.894,177.831 45.766,179.246 49.647 L 179.946 51.569 180.185 50.658 C 181.028 47.443,183.830 45.421,189.478 43.952 C 198.522 41.599,205.843 42.501,208.538 46.301 L 209.275 47.339 209.543 46.704 C 210.340 44.819,211.979 43.316,213.672 42.917 C 215.225 42.552,258.970 42.556,260.344 42.922 C 261.570 43.248,262.488 43.886,263.226 44.925 L 263.822 45.763 264.899 44.958 C 266.818 43.523,270.733 42.606,277.038 42.115 C 280.178 41.871,297.043 41.879,300.471 42.126 C 308.491 42.704,314.740 45.143,317.795 48.889 L 318.894 50.237 319.082 49.742 C 321.111 44.406,339.345 40.677,346.665 44.102 C 347.624 44.551,349.712 46.397,350.109 47.146 C 350.277 47.463,350.355 47.438,351.191 46.796 C 356.013 43.095,371.586 41.431,376.693 44.071 C 379.620 45.585,381.623 48.663,381.347 51.222 C 381.115 53.378,378.700 59.027,369.268 79.473 L 365.057 88.600 365.057 95.234 C 365.057 103.708,364.931 104.322,362.900 105.697 C 358.829 108.454,340.329 109.015,337.121 106.479 C 334.943 104.758,334.897 104.535,334.897 95.905 L 334.897 88.879 332.581 84.118 C 329.947 78.703,326.330 71.088,324.205 66.483 L 322.763 63.356 322.760 64.828 C 322.750 71.070,320.441 77.647,316.912 81.484 L 316.030 82.444 317.806 85.406 C 328.641 103.472,326.066 108.025,305.011 108.029 C 296.680 108.030,294.624 107.470,292.912 104.735 L 292.295 103.748 291.972 104.295 C 290.757 106.351,287.134 107.383,279.080 107.968 C 270.229 108.610,265.230 107.736,263.464 105.237 C 262.424 103.766,262.444 104.148,262.440 85.579 L 262.437 68.446 261.426 69.432 C 260.070 70.756,259.695 70.847,255.218 70.941 L 251.402 71.021 251.402 86.720 C 251.402 105.401,251.466 104.868,249.089 106.140 C 245.069 108.290,227.211 108.848,223.878 106.927 C 221.153 105.357,221.241 106.024,221.241 87.047 L 221.241 70.989 217.277 70.989 C 213.028 70.989,211.953 70.843,211.001 70.136 C 210.679 69.897,210.368 69.701,210.311 69.701 C 210.254 69.701,210.206 77.005,210.205 85.931 C 210.202 105.127,210.296 104.274,208.034 105.726 C 205.731 107.203,197.153 108.312,189.793 108.083 C 183.593 107.891,181.360 106.816,180.096 103.417 C 179.586 102.046,179.450 102.011,179.238 103.197 C 178.650 106.475,172.816 108.031,161.103 108.035 C 154.572 108.037,152.432 107.584,150.820 105.858 L 150.376 105.382 149.808 105.813 C 147.575 107.511,143.172 108.257,136.460 108.075 C 124.610 107.754,120.276 105.551,120.276 99.850 C 120.276 99.356,120.222 99.310,119.632 99.310 C 119.070 99.310,118.989 99.368,118.989 99.765 C 118.989 102.902,116.631 106.253,113.879 107.030 C 107.332 108.876,95.352 108.252,90.299 105.801 C 88.029 104.700,86.506 102.443,86.583 100.295 C 86.624 99.181,88.605 91.713,90.232 86.537 C 90.302 86.314,89.781 86.701,88.950 87.489 C 84.776 91.448,77.664 93.420,67.540 93.425 L 66.207 93.425 66.205 97.701 C 66.201 105.449,65.362 106.388,57.471 107.475 C 47.083 108.906,39.428 108.152,37.239 105.480 C 36.004 103.973,36.051 104.863,36.048 82.713 C 36.046 66.110,36.004 62.713,35.799 62.713 C 35.362 62.713,32.552 60.760,31.106 59.451 C 30.333 58.752,29.092 57.657,28.347 57.018 C 23.838 53.147,22.087 51.314,19.949 48.232 L 19.664 47.820 18.751 48.501 L 17.839 49.182 17.839 75.705 L 17.839 102.228 19.034 107.276 C 19.692 110.052,20.230 112.363,20.230 112.412 C 20.230 112.461,21.256 113.926,22.510 115.667 L 24.790 118.832 27.523 120.795 C 29.026 121.875,30.484 122.907,30.764 123.088 C 31.867 123.800,41.764 125.980,44.920 126.205 L 47.816 126.412 47.816 150.182 L 47.816 173.952 49.011 179.000 C 49.669 181.776,50.207 184.087,50.207 184.136 C 50.207 184.185,51.233 185.650,52.487 187.391 L 54.767 190.556 57.500 192.519 C 59.003 193.599,60.461 194.631,60.741 194.812 C 61.600 195.367,71.676 197.682,74.207 197.906 C 80.016 198.420,86.548 197.727,95.190 195.680 C 101.605 194.161,101.191 194.323,104.184 192.153 C 105.499 191.200,106.672 190.360,106.791 190.287 C 106.918 190.210,107.959 190.843,109.303 191.816 C 112.625 194.219,112.615 194.216,123.218 196.666 C 131.501 198.580,137.005 198.521,145.863 196.425 L 150.392 195.354 154.139 196.254 C 162.936 198.367,169.905 198.611,176.700 197.043 L 179.699 196.351 182.585 197.041 C 188.707 198.504,197.370 198.302,205.072 196.517 L 207.753 195.896 211.049 196.690 C 219.758 198.790,226.575 198.602,237.838 195.953 L 243.676 194.579 244.367 194.934 C 245.807 195.672,255.125 197.712,258.023 197.923 C 260.996 198.140,267.471 197.901,271.468 197.426 C 273.510 197.184,284.889 194.622,285.477 194.272 C 286.646 193.576,291.450 189.959,291.852 189.471 L 292.369 188.844 292.980 189.694 C 293.585 190.537,299.164 194.721,300.215 195.121 C 304.414 196.717,313.554 198.167,318.253 197.983 C 324.602 197.733,326.708 197.431,333.885 195.736 C 340.679 194.132,339.967 194.424,343.720 191.710 L 346.634 189.604 348.709 186.710 L 350.784 183.816 351.938 179.034 L 353.092 174.253 353.098 169.367 L 353.103 164.481 354.593 161.275 C 358.856 152.102,364.259 140.105,366.000 135.944 C 366.892 133.813,367.314 132.421,368.203 128.677 C 369.717 122.299,369.584 122.713,370.226 122.381 C 370.532 122.223,372.094 121.145,373.697 119.986 L 376.611 117.879 378.686 114.986 L 380.761 112.092 381.915 107.310 L 383.069 102.529 383.075 97.643 L 383.080 92.757 384.570 89.551 C 388.829 80.386,394.236 68.381,395.974 64.229 C 396.888 62.045,397.291 60.693,398.358 56.226 L 399.643 50.851 398.438 45.701 C 396.986 39.497,397.335 40.334,394.622 36.558 C 392.040 32.964,392.012 32.937,388.183 30.193 C 384.532 27.576,384.776 27.676,378.248 26.124 C 368.912 23.905,366.292 23.958,355.409 26.583 L 352.841 27.202 347.777 26.001 C 338.883 23.892,337.515 23.940,325.528 26.777 C 322.348 27.530,319.715 28.178,319.675 28.217 C 319.636 28.257,318.886 28.045,318.009 27.747 C 315.980 27.058,305.485 24.552,303.540 24.292 C 294.295 23.059,275.583 23.598,268.311 25.307 L 265.450 25.979 262.220 25.220 L 258.989 24.460 237.016 24.460 L 215.044 24.460 211.512 25.297 L 207.980 26.135 204.726 25.363 C 199.245 24.063,196.306 24.212,187.723 26.225 C 184.916 26.884,182.545 27.377,182.456 27.322 C 182.367 27.267,179.822 26.629,176.802 25.905 L 171.310 24.589 168.276 24.590 C 162.990 24.593,150.271 27.324,146.149 29.341 L 144.896 29.954 143.391 28.892 C 141.473 27.539,141.747 27.634,135.356 26.111 C 125.013 23.645,116.301 23.941,102.589 27.223 C 97.471 28.448,96.571 28.736,95.665 29.442 C 95.248 29.767,95.220 29.762,94.372 29.241 C 91.658 27.571,80.444 24.730,74.023 24.086 C 71.417 23.824,57.252 23.708,53.425 23.916 M53.968 46.943 L 53.241 47.724 54.023 46.997 C 54.750 46.321,54.889 46.161,54.750 46.161 C 54.720 46.161,54.368 46.513,53.968 46.943 M121.241 46.472 C 121.418 46.518,121.708 46.518,121.885 46.472 C 122.062 46.425,121.917 46.387,121.563 46.387 C 121.209 46.387,121.064 46.425,121.241 46.472 M50.660 50.437 L 49.747 51.402 50.713 50.490 C 51.244 49.988,51.678 49.553,51.678 49.524 C 51.678 49.387,51.508 49.540,50.660 50.437 M35.119 52.644 C 35.570 53.124,35.963 53.517,35.992 53.517 C 36.130 53.517,35.984 53.352,35.172 52.590 L 34.299 51.770 35.119 52.644 M261.196 53.241 C 261.198 53.646,261.236 53.790,261.279 53.561 C 261.323 53.332,261.322 53.001,261.276 52.825 C 261.230 52.650,261.194 52.837,261.196 53.241 M69.210 67.586 C 69.211 68.294,69.244 68.561,69.284 68.180 C 69.323 67.798,69.323 67.219,69.282 66.892 C 69.242 66.566,69.209 66.878,69.210 67.586 M289.609 72.777 C 289.938 72.818,290.476 72.818,290.805 72.777 C 291.133 72.736,290.864 72.703,290.207 72.703 C 289.549 72.703,289.280 72.736,289.609 72.777 M62.428 89.795 C 62.380 89.922,62.363 92.756,62.391 96.093 L 62.442 102.161 62.485 95.966 L 62.529 89.772 63.034 89.695 L 63.540 89.618 63.029 89.591 C 62.747 89.576,62.477 89.667,62.428 89.795 M68.462 89.695 C 68.742 89.737,69.156 89.736,69.382 89.693 C 69.608 89.649,69.379 89.614,68.874 89.616 C 68.368 89.617,68.183 89.653,68.462 89.695 M102.345 113.842 C 118.936 115.035,125.551 121.724,125.842 137.601 L 125.885 139.938 126.179 139.072 C 126.340 138.596,127.825 133.862,129.478 128.552 C 133.249 116.434,132.928 116.925,137.772 115.867 C 146.232 114.018,159.487 113.927,163.475 115.691 C 166.263 116.924,166.005 116.294,172.203 137.011 C 175.183 146.975,177.997 156.368,178.454 157.885 L 179.287 160.644 179.301 140.690 C 179.316 119.150,179.294 119.656,180.293 118.146 C 182.562 114.717,188.512 113.655,205.464 113.655 C 225.183 113.655,231.445 115.455,236.045 122.444 C 236.651 123.365,236.738 123.313,237.046 121.839 C 237.937 117.568,239.723 115.129,242.354 114.590 C 243.932 114.267,287.623 114.319,288.849 114.646 C 290.386 115.055,292.414 116.884,292.414 117.860 C 292.414 118.158,292.525 118.128,294.621 117.264 C 305.091 112.945,317.408 113.721,320.132 118.870 C 320.300 119.187,320.378 119.162,321.214 118.520 C 326.036 114.819,341.609 113.155,346.716 115.796 C 349.643 117.309,351.646 120.387,351.370 122.947 C 351.138 125.102,348.723 130.751,339.291 151.197 L 335.080 160.324 335.080 166.958 C 335.080 175.432,334.954 176.047,332.923 177.422 C 328.852 180.178,310.352 180.739,307.144 178.203 C 304.967 176.482,304.920 176.258,304.920 167.639 L 304.920 160.623 301.724 154.013 C 298.418 147.172,294.540 138.963,293.370 136.326 L 292.698 134.813 292.200 136.725 C 290.911 141.667,289.664 142.541,283.724 142.665 L 279.908 142.745 279.908 158.444 C 279.908 177.125,279.972 176.592,277.595 177.864 C 273.575 180.015,255.717 180.572,252.383 178.651 C 249.659 177.081,249.747 177.748,249.747 158.771 L 249.747 142.713 245.783 142.713 C 241.709 142.713,240.476 142.563,239.633 141.965 L 239.174 141.640 238.592 143.897 C 237.602 147.733,236.044 150.752,233.786 153.208 L 232.904 154.168 234.680 157.130 C 245.514 175.196,242.939 179.749,221.885 179.753 C 213.554 179.754,211.497 179.195,209.786 176.459 L 209.169 175.472 208.845 176.019 C 207.631 178.075,204.013 179.106,195.954 179.693 C 188.262 180.252,183.305 179.631,181.139 177.836 L 180.300 177.141 179.851 177.496 C 177.695 179.203,173.162 179.981,166.437 179.799 C 154.587 179.479,150.253 177.276,150.253 171.574 C 150.253 171.080,150.199 171.034,149.609 171.034 C 149.047 171.034,148.966 171.092,148.966 171.489 C 148.966 174.626,146.608 177.977,143.856 178.754 C 137.309 180.600,125.329 179.976,120.276 177.526 C 118.006 176.425,116.483 174.167,116.560 172.019 C 116.601 170.906,118.582 163.438,120.209 158.262 C 120.279 158.038,119.758 158.425,118.927 159.213 C 114.753 163.172,107.641 165.144,97.517 165.149 L 96.184 165.149 96.182 169.425 C 96.177 177.881,94.976 178.781,82.483 179.692 C 72.224 180.441,67.278 179.133,66.287 175.412 C 65.902 173.966,65.899 121.217,66.284 119.772 C 67.094 116.730,70.553 115.099,78.069 114.214 C 82.577 113.683,97.051 113.461,102.345 113.842 M151.218 118.196 C 151.395 118.242,151.685 118.242,151.862 118.196 C 152.039 118.149,151.894 118.112,151.540 118.112 C 151.186 118.112,151.041 118.149,151.218 118.196 M289.702 124.966 C 289.704 125.370,289.741 125.514,289.785 125.285 C 289.829 125.056,289.828 124.725,289.782 124.550 C 289.736 124.374,289.700 124.561,289.702 124.966 M99.187 139.310 C 99.188 140.018,99.221 140.286,99.261 139.904 C 99.300 139.522,99.300 138.943,99.259 138.617 C 99.219 138.290,99.186 138.602,99.187 139.310 M206.483 144.501 C 206.811 144.542,207.349 144.542,207.678 144.501 C 208.007 144.460,207.738 144.427,207.080 144.427 C 206.423 144.427,206.154 144.460,206.483 144.501 M92.405 161.519 C 92.357 161.646,92.340 164.480,92.368 167.817 L 92.419 173.885 92.462 167.690 L 92.506 161.496 93.011 161.419 L 93.517 161.342 93.006 161.315 C 92.724 161.300,92.454 161.391,92.405 161.519 M98.439 161.419 C 98.719 161.462,99.133 161.460,99.359 161.417 C 99.585 161.373,99.356 161.339,98.851 161.340 C 98.345 161.341,98.160 161.377,98.439 161.419 " stroke="none" fill="#fcbc14" fill-rule="evenodd"></path><path id="path1" d="M29.241 0.172 C 29.241 0.280,29.034 0.368,28.782 0.368 C 28.529 0.368,28.322 0.440,28.322 0.528 C 28.322 0.616,27.929 0.788,27.448 0.911 C 26.968 1.033,26.368 1.238,26.115 1.366 C 25.862 1.495,25.262 1.705,24.782 1.835 C 24.301 1.965,23.908 2.133,23.908 2.208 C 23.908 2.284,23.639 2.457,23.310 2.592 C 21.663 3.269,20.448 4.416,19.603 6.095 C 19.228 6.839,18.683 7.821,18.391 8.276 C 17.896 9.047,17.170 10.953,17.251 11.264 C 17.271 11.340,17.143 11.404,16.966 11.405 C 15.772 11.416,12.232 11.800,12.148 11.928 C 12.092 12.014,11.716 12.192,11.312 12.324 C 10.908 12.456,10.233 12.902,9.813 13.316 C 9.392 13.730,8.564 14.531,7.972 15.096 C 5.812 17.158,3.678 20.340,3.678 21.499 C 3.678 21.671,3.595 21.895,3.494 21.996 C 3.392 22.098,3.181 22.673,3.024 23.274 C 2.868 23.876,2.661 24.446,2.565 24.543 C 2.350 24.758,2.331 27.954,2.545 27.954 C 2.629 27.954,2.840 28.464,3.014 29.088 C 3.187 29.712,3.490 30.449,3.687 30.726 C 4.132 31.350,4.136 31.547,3.711 31.852 C 3.193 32.223,0.892 36.777,0.556 38.096 C 0.444 38.536,0.268 39.067,0.164 39.275 C -0.307 40.222,0.395 47.447,1.065 48.549 C 3.048 51.811,4.565 52.882,7.172 52.861 C 8.651 52.849,11.072 52.173,11.402 51.680 C 11.453 51.604,12.132 51.484,12.911 51.412 C 14.376 51.276,17.173 50.082,17.839 49.306 C 17.991 49.130,18.461 48.720,18.884 48.395 L 19.653 47.805 19.944 48.224 C 22.098 51.327,23.834 53.144,28.347 57.018 C 29.092 57.657,30.333 58.752,31.106 59.451 C 32.552 60.760,35.362 62.713,35.799 62.713 C 36.004 62.713,36.046 66.110,36.048 82.713 C 36.051 104.863,36.004 103.973,37.239 105.480 C 39.428 108.152,47.083 108.906,57.471 107.475 C 65.362 106.388,66.201 105.449,66.205 97.701 L 66.207 93.425 67.540 93.425 C 77.664 93.420,84.776 91.448,88.950 87.489 C 89.781 86.701,90.302 86.314,90.232 86.537 C 86.158 99.492,85.886 101.919,88.243 104.270 C 91.892 107.908,105.550 109.379,113.879 107.030 C 116.631 106.253,118.989 102.902,118.989 99.765 C 118.989 99.368,119.070 99.310,119.632 99.310 C 120.222 99.310,120.276 99.356,120.276 99.850 C 120.276 105.551,124.610 107.754,136.460 108.075 C 143.172 108.257,147.575 107.511,149.808 105.813 L 150.376 105.382 150.820 105.858 C 152.432 107.584,154.572 108.037,161.103 108.035 C 172.816 108.031,178.650 106.475,179.238 103.197 C 179.450 102.011,179.586 102.046,180.096 103.417 C 181.360 106.816,183.593 107.891,189.793 108.083 C 197.153 108.312,205.731 107.203,208.034 105.726 C 210.296 104.274,210.202 105.127,210.205 85.931 C 210.206 77.005,210.254 69.701,210.311 69.701 C 210.368 69.701,210.679 69.897,211.001 70.136 C 211.953 70.843,213.028 70.989,217.277 70.989 L 221.241 70.989 221.241 87.047 C 221.241 106.024,221.153 105.357,223.878 106.927 C 227.211 108.848,245.069 108.290,249.089 106.140 C 251.466 104.868,251.402 105.401,251.402 86.720 L 251.402 71.021 255.218 70.941 C 259.695 70.847,260.070 70.756,261.426 69.432 L 262.437 68.446 262.440 85.579 C 262.444 104.148,262.424 103.766,263.464 105.237 C 265.230 107.736,270.229 108.610,279.080 107.968 C 287.134 107.383,290.757 106.351,291.972 104.295 L 292.295 103.748 292.912 104.735 C 294.624 107.470,296.680 108.030,305.011 108.029 C 326.066 108.025,328.641 103.472,317.806 85.406 L 316.030 82.444 316.912 81.484 C 320.441 77.647,322.750 71.070,322.760 64.828 L 322.763 63.356 324.205 66.483 C 326.330 71.088,329.947 78.703,332.581 84.118 L 334.897 88.879 334.897 95.905 C 334.897 104.535,334.943 104.758,337.121 106.479 C 340.329 109.015,358.829 108.454,362.900 105.697 C 364.931 104.322,365.057 103.708,365.057 95.234 L 365.057 88.600 369.268 79.473 C 378.700 59.027,381.115 53.378,381.347 51.222 C 381.623 48.663,379.620 45.585,376.693 44.071 C 371.586 41.431,356.013 43.095,351.191 46.796 C 350.355 47.438,350.277 47.463,350.109 47.146 C 349.712 46.397,347.624 44.551,346.665 44.102 C 339.345 40.677,321.111 44.406,319.082 49.742 L 318.894 50.237 317.795 48.889 C 314.740 45.143,308.491 42.704,300.471 42.126 C 297.043 41.879,280.178 41.871,277.038 42.115 C 270.733 42.606,266.818 43.523,264.899 44.958 L 263.822 45.763 263.226 44.925 C 262.488 43.886,261.570 43.248,260.344 42.922 C 258.970 42.556,215.225 42.552,213.672 42.917 C 211.979 43.316,210.340 44.819,209.543 46.704 L 209.275 47.339 208.538 46.301 C 205.843 42.501,198.522 41.599,189.478 43.952 C 183.830 45.421,181.028 47.443,180.185 50.658 L 179.946 51.569 179.246 49.647 C 177.831 45.766,176.008 43.894,172.874 43.106 C 166.128 41.408,153.508 44.396,150.541 48.393 C 149.300 50.065,149.341 49.339,149.325 70.161 L 149.310 88.920 148.477 86.161 C 148.019 84.644,145.206 75.251,142.225 65.287 C 136.028 44.570,136.286 45.200,133.498 43.967 C 129.510 42.203,116.255 42.294,107.795 44.142 C 102.951 45.201,103.272 44.710,99.501 56.828 C 97.848 62.138,96.363 66.872,96.202 67.348 L 95.908 68.213 95.865 65.877 C 95.717 57.788,93.342 50.998,89.535 47.779 C 84.290 43.344,79.436 42.172,65.403 41.953 L 58.071 41.839 57.579 40.460 C 57.308 39.701,56.562 38.087,55.921 36.874 C 55.280 35.660,54.242 33.674,53.614 32.460 C 52.430 30.169,50.639 26.857,49.751 25.318 C 49.097 24.184,49.167 24.109,51.685 23.254 C 53.707 22.568,55.466 21.783,55.875 21.386 C 56.009 21.256,56.216 21.149,56.335 21.148 C 56.550 21.148,58.420 19.416,59.129 18.561 C 61.764 15.384,61.426 8.998,58.455 5.848 C 58.217 5.596,57.645 4.984,57.183 4.488 C 56.721 3.992,56.184 3.482,55.988 3.354 C 55.792 3.226,55.384 2.962,55.080 2.767 C 54.777 2.572,54.430 2.326,54.310 2.221 C 54.189 2.115,53.734 1.890,53.298 1.721 C 52.862 1.552,52.423 1.353,52.322 1.280 C 52.221 1.206,51.517 1.046,50.759 0.923 C 50.000 0.800,49.214 0.630,49.011 0.545 C 48.809 0.460,48.313 0.340,47.908 0.279 C 45.992 -0.013,45.609 -0.032,45.609 0.165 C 45.609 0.277,45.409 0.368,45.165 0.368 C 44.920 0.368,44.693 0.430,44.659 0.506 C 44.625 0.582,44.225 0.833,43.770 1.065 C 42.729 1.596,42.355 1.819,41.577 2.377 L 40.955 2.824 40.018 2.335 C 39.502 2.067,38.732 1.760,38.307 1.654 C 37.881 1.548,37.492 1.395,37.441 1.313 C 37.391 1.232,36.767 1.056,36.054 0.921 C 35.342 0.787,34.759 0.615,34.759 0.540 C 34.759 0.368,33.349 0.190,31.034 0.069 C 29.829 0.006,29.241 0.040,29.241 0.172 M39.733 27.499 C 41.956 28.649,35.729 38.219,31.315 40.435 C 27.737 42.232,23.026 43.242,22.839 42.253 C 22.797 42.036,22.894 41.931,23.136 41.931 C 25.070 41.931,30.705 39.242,32.342 37.539 C 34.444 35.351,35.700 33.206,37.662 28.448 C 38.102 27.382,38.847 27.041,39.733 27.499 M72.276 45.803 C 83.468 46.600,88.370 49.436,90.774 56.505 C 92.972 62.967,92.491 74.902,89.816 80.261 C 86.392 87.124,81.087 89.378,67.632 89.688 L 62.529 89.806 62.529 95.897 C 62.529 102.788,62.570 102.581,61.103 103.061 C 56.717 104.499,43.211 104.940,40.826 103.724 C 39.662 103.129,39.724 104.407,39.724 81.231 L 39.724 59.816 41.333 58.450 C 42.218 57.699,43.232 56.883,43.586 56.636 C 46.090 54.892,49.695 51.522,54.153 46.759 L 55.228 45.609 62.419 45.611 C 66.374 45.612,70.809 45.698,72.276 45.803 M300.322 45.796 C 313.522 46.782,319.094 52.216,319.077 64.087 C 319.067 71.478,316.699 77.346,312.346 80.766 L 311.200 81.667 312.715 84.099 C 317.614 91.963,320.552 98.035,320.552 100.294 C 320.552 103.145,315.825 104.369,304.828 104.367 C 298.635 104.365,297.579 104.233,296.553 103.332 C 295.803 102.674,295.900 102.936,293.146 94.161 C 291.923 90.267,290.797 86.687,290.642 86.207 C 290.370 85.362,290.338 85.333,289.642 85.333 L 288.923 85.333 288.875 93.931 L 288.828 102.529 288.184 102.844 C 285.025 104.389,269.775 105.029,267.217 103.724 C 266.048 103.127,266.115 104.836,266.115 75.789 L 266.115 48.932 266.678 48.291 C 267.815 46.996,270.853 46.296,277.793 45.731 C 279.672 45.578,298.118 45.631,300.322 45.796 M130.391 46.758 C 131.708 47.096,132.840 47.688,133.186 48.219 C 133.487 48.681,144.988 86.956,148.141 97.990 C 149.220 101.762,149.099 102.245,146.822 103.297 C 142.902 105.108,128.598 104.666,125.297 102.633 C 124.305 102.021,124.145 101.583,123.808 98.549 L 123.494 95.724 119.586 95.675 C 117.437 95.647,115.676 95.647,115.673 95.675 C 115.670 95.702,115.555 96.929,115.418 98.402 C 114.984 103.074,114.163 103.784,108.598 104.302 C 101.397 104.972,92.577 103.660,90.691 101.638 C 89.678 100.553,90.068 99.119,99.892 67.770 C 102.522 59.375,104.942 51.637,105.270 50.575 C 105.857 48.668,105.874 48.639,106.679 48.234 C 109.439 46.845,126.582 45.778,130.391 46.758 M172.598 46.786 C 173.391 47.124,174.146 47.768,174.771 48.638 C 174.987 48.939,176.996 54.107,179.236 60.125 C 181.476 66.142,183.403 71.096,183.517 71.134 C 183.669 71.185,183.724 68.554,183.724 61.239 C 183.724 49.858,183.605 50.689,185.414 49.478 C 188.220 47.601,193.149 46.462,198.529 46.446 C 203.377 46.432,204.888 46.982,205.974 49.156 L 206.529 50.266 206.529 76.246 C 206.529 99.548,206.499 102.256,206.242 102.514 C 204.290 104.466,186.076 105.172,184.216 103.368 C 184.032 103.189,182.163 98.504,180.065 92.958 C 177.966 87.411,176.151 82.840,176.032 82.800 C 175.868 82.745,175.816 85.112,175.816 92.579 L 175.816 102.429 175.117 102.786 C 171.964 104.395,156.755 105.071,154.107 103.720 C 152.946 103.128,153.011 104.731,153.011 76.886 L 153.011 51.127 153.691 50.376 C 156.288 47.500,168.735 45.137,172.598 46.786 M260.025 46.783 C 262.237 49.137,261.404 64.325,258.927 66.802 L 258.419 67.310 253.072 67.310 L 247.724 67.310 247.724 84.937 C 247.724 101.645,247.707 102.579,247.395 102.862 C 245.619 104.468,227.305 105.022,225.403 103.526 L 224.920 103.146 224.920 85.228 L 224.920 67.310 219.063 67.310 C 213.673 67.310,213.183 67.284,212.909 66.982 C 210.422 64.234,210.998 49.741,213.701 47.037 L 214.394 46.345 237.004 46.345 L 259.614 46.345 260.025 46.783 M342.503 46.615 C 345.142 47.086,346.918 48.346,347.383 50.077 C 347.497 50.502,348.043 55.444,348.598 61.057 C 349.890 74.156,349.730 73.011,350.270 73.011 C 350.514 73.011,350.712 72.908,350.712 72.782 C 350.711 72.154,352.200 51.873,352.284 51.362 C 352.575 49.609,355.359 48.240,360.752 47.199 C 370.653 45.287,377.747 46.808,377.747 50.841 C 377.747 51.907,373.489 61.602,364.431 81.164 L 361.379 87.754 361.379 94.975 C 361.379 101.694,361.356 102.217,361.048 102.495 C 358.760 104.566,340.655 105.202,338.993 103.270 L 338.575 102.784 338.575 95.401 L 338.575 88.019 336.066 82.860 C 326.330 62.840,321.905 52.679,322.380 51.430 C 323.496 48.496,336.115 45.477,342.503 46.615 M42.139 50.056 C 45.441 52.494,46.144 53.230,45.793 53.885 C 45.302 54.802,44.322 54.330,42.049 52.081 C 40.232 50.284,39.791 49.674,39.970 49.208 C 40.155 48.724,40.537 48.873,42.139 50.056 M34.320 50.061 C 34.612 50.284,35.347 50.887,35.954 51.401 C 36.561 51.915,37.548 52.705,38.147 53.156 C 41.424 55.625,42.621 57.563,40.869 57.563 C 40.230 57.563,33.103 50.903,33.103 50.306 C 33.103 49.652,33.643 49.543,34.320 50.061 M288.920 65.563 L 288.920 72.644 290.638 72.644 C 293.982 72.644,295.241 71.259,295.764 67.005 C 296.444 61.474,294.658 58.483,290.674 58.483 L 288.920 58.483 288.920 65.563 M62.529 67.706 L 62.529 76.193 64.301 76.077 C 68.030 75.832,68.931 74.407,69.103 68.481 C 69.310 61.366,68.108 59.218,63.919 59.218 L 62.529 59.218 62.529 67.706 M118.723 66.069 C 118.668 66.398,118.375 69.398,118.071 72.736 C 117.767 76.074,117.476 79.115,117.424 79.494 L 117.329 80.184 119.538 80.184 C 120.753 80.184,121.750 80.122,121.753 80.046 C 121.755 79.970,121.491 76.660,121.165 72.690 L 120.573 65.471 119.697 65.471 C 118.852 65.471,118.818 65.492,118.723 66.069 M82.207 113.853 C 71.970 114.494,67.219 116.260,66.284 119.772 C 65.899 121.217,65.902 173.966,66.287 175.412 C 67.278 179.133,72.224 180.441,82.483 179.692 C 94.976 178.781,96.177 177.881,96.182 169.425 L 96.184 165.149 97.517 165.149 C 107.641 165.144,114.753 163.172,118.927 159.213 C 119.758 158.425,120.279 158.038,120.209 158.262 C 116.135 171.216,115.863 173.643,118.220 175.994 C 121.869 179.633,135.527 181.103,143.856 178.754 C 146.608 177.977,148.966 174.626,148.966 171.489 C 148.966 171.092,149.047 171.034,149.609 171.034 C 150.199 171.034,150.253 171.080,150.253 171.574 C 150.253 177.276,154.587 179.479,166.437 179.799 C 173.162 179.981,177.695 179.203,179.851 177.496 L 180.300 177.141 181.139 177.836 C 183.305 179.631,188.262 180.252,195.954 179.693 C 204.013 179.106,207.631 178.075,208.845 176.019 L 209.169 175.472 209.786 176.459 C 211.497 179.195,213.554 179.754,221.885 179.753 C 242.939 179.749,245.514 175.196,234.680 157.130 L 232.904 154.168 233.786 153.208 C 236.044 150.752,237.602 147.733,238.592 143.897 L 239.174 141.640 239.633 141.965 C 240.476 142.563,241.709 142.713,245.783 142.713 L 249.747 142.713 249.747 158.771 C 249.747 177.748,249.659 177.081,252.383 178.651 C 255.717 180.572,273.575 180.015,277.595 177.864 C 279.972 176.592,279.908 177.125,279.908 158.444 L 279.908 142.745 283.724 142.665 C 289.664 142.541,290.911 141.667,292.200 136.725 L 292.698 134.813 293.370 136.326 C 294.540 138.963,298.418 147.172,301.724 154.013 L 304.920 160.623 304.920 167.639 C 304.920 176.258,304.967 176.482,307.144 178.203 C 310.352 180.739,328.852 180.178,332.923 177.422 C 334.954 176.047,335.080 175.432,335.080 166.958 L 335.080 160.324 339.291 151.197 C 348.723 130.751,351.138 125.102,351.370 122.947 C 351.646 120.387,349.643 117.309,346.716 115.796 C 341.609 113.155,326.036 114.819,321.214 118.520 C 320.378 119.162,320.300 119.187,320.132 118.870 C 317.408 113.721,305.091 112.945,294.621 117.264 C 292.525 118.128,292.414 118.158,292.414 117.860 C 292.414 116.884,290.386 115.055,288.849 114.646 C 287.623 114.319,243.932 114.267,242.354 114.590 C 239.723 115.129,237.937 117.568,237.046 121.839 C 236.738 123.313,236.651 123.365,236.045 122.444 C 231.445 115.455,225.183 113.655,205.464 113.655 C 188.512 113.655,182.562 114.717,180.293 118.146 C 179.294 119.656,179.316 119.150,179.301 140.690 L 179.287 160.644 178.454 157.885 C 177.997 156.368,175.183 146.975,172.203 137.011 C 166.005 116.294,166.263 116.924,163.475 115.691 C 159.487 113.927,146.232 114.018,137.772 115.867 C 132.928 116.925,133.249 116.434,129.478 128.552 C 127.825 133.862,126.340 138.596,126.179 139.072 L 125.885 139.938 125.842 137.601 C 125.580 123.289,119.761 116.131,106.910 114.309 C 102.460 113.678,88.973 113.429,82.207 113.853 M102.253 117.527 C 113.445 118.324,118.347 121.160,120.751 128.229 C 122.949 134.691,122.468 146.627,119.793 151.985 C 116.369 158.848,111.064 161.102,97.609 161.412 L 92.506 161.530 92.506 167.621 C 92.506 174.512,92.547 174.305,91.080 174.786 C 86.694 176.223,73.188 176.664,70.803 175.448 C 69.634 174.851,69.701 176.562,69.701 147.488 L 69.701 120.607 70.262 120.084 C 72.593 117.906,89.079 116.588,102.253 117.527 M217.195 117.520 C 230.395 118.506,235.967 123.940,235.951 135.811 C 235.940 143.202,233.572 149.070,229.220 152.490 L 228.073 153.391 229.588 155.823 C 234.487 163.687,237.425 169.759,237.425 172.018 C 237.425 174.869,232.699 176.093,221.701 176.091 C 215.508 176.089,214.452 175.957,213.426 175.057 C 212.676 174.398,212.774 174.660,210.019 165.885 C 208.797 161.991,207.670 158.411,207.516 157.931 C 207.244 157.086,207.212 157.057,206.516 157.057 L 205.797 157.057 205.749 165.655 L 205.701 174.253 205.057 174.568 C 201.899 176.113,186.649 176.753,184.091 175.448 C 182.921 174.851,182.989 176.560,182.989 147.513 L 182.989 120.656 183.551 120.015 C 184.689 118.720,187.727 118.020,194.667 117.455 C 196.545 117.302,214.992 117.355,217.195 117.520 M160.368 118.482 C 161.685 118.821,162.817 119.412,163.163 119.943 C 163.464 120.405,174.965 158.680,178.118 169.714 C 179.197 173.486,179.076 173.969,176.799 175.021 C 172.879 176.832,158.575 176.390,155.274 174.357 C 154.282 173.745,154.122 173.307,153.785 170.273 L 153.471 167.448 149.563 167.399 C 147.414 167.371,145.653 167.371,145.650 167.399 C 145.647 167.426,145.532 168.653,145.395 170.126 C 144.961 174.798,144.140 175.509,138.575 176.026 C 131.374 176.696,122.555 175.384,120.668 173.362 C 119.655 172.277,120.045 170.843,129.869 139.494 C 132.499 131.099,134.919 123.361,135.247 122.299 C 135.834 120.392,135.851 120.363,136.656 119.958 C 139.416 118.569,156.559 117.502,160.368 118.482 M288.531 118.507 C 290.743 120.861,289.910 136.049,287.433 138.526 L 286.925 139.034 281.577 139.034 L 276.230 139.034 276.230 156.661 C 276.230 173.369,276.213 174.303,275.900 174.586 C 274.125 176.193,255.810 176.746,253.909 175.250 L 253.425 174.870 253.425 156.952 L 253.425 139.034 247.569 139.034 C 242.179 139.034,241.688 139.008,241.415 138.706 C 238.928 135.958,239.504 121.465,242.207 118.761 L 242.899 118.069 265.510 118.069 L 288.120 118.069 288.531 118.507 M312.526 118.339 C 315.165 118.810,316.941 120.070,317.406 121.801 C 317.520 122.226,318.066 127.168,318.620 132.782 C 319.913 145.880,319.753 144.736,320.293 144.736 C 320.537 144.736,320.735 144.632,320.735 144.506 C 320.734 143.878,322.223 123.597,322.307 123.086 C 322.598 121.333,325.382 119.964,330.775 118.923 C 340.676 117.011,347.770 118.532,347.770 122.565 C 347.770 123.631,343.512 133.326,334.454 152.888 L 331.402 159.478 331.402 166.699 C 331.402 173.418,331.379 173.941,331.071 174.220 C 328.783 176.290,310.678 176.926,309.016 174.994 L 308.598 174.508 308.598 167.126 L 308.598 159.743 306.089 154.584 C 296.353 134.565,291.928 124.403,292.403 123.154 C 293.519 120.220,306.138 117.201,312.526 118.339 M205.793 137.287 L 205.793 144.368 207.511 144.368 C 210.856 144.368,212.115 142.983,212.638 138.729 C 213.318 133.198,211.532 130.207,207.548 130.207 L 205.793 130.207 205.793 137.287 M92.506 139.430 L 92.506 147.918 94.278 147.801 C 98.007 147.556,98.908 146.131,99.080 140.205 C 99.287 133.090,98.085 130.943,93.896 130.943 L 92.506 130.943 92.506 139.430 M148.700 137.793 C 148.645 138.122,148.352 141.122,148.048 144.460 C 147.744 147.798,147.453 150.839,147.401 151.218 L 147.306 151.908 149.515 151.908 C 150.730 151.908,151.727 151.846,151.730 151.770 C 151.732 151.694,151.468 148.384,151.142 144.414 L 150.550 137.195 149.674 137.195 C 148.829 137.195,148.795 137.216,148.700 137.793 " stroke="none" fill="#fbfafa" fill-rule="evenodd"></path><path id="path2" d="M55.353 45.748 C 55.200 45.824,53.713 47.320,52.050 49.074 C 48.972 52.320,47.007 54.110,44.046 56.363 C 43.136 57.056,41.797 58.126,41.071 58.742 L 39.752 59.862 39.738 81.141 C 39.723 104.521,39.648 103.109,40.926 103.727 C 43.546 104.996,58.043 104.360,61.514 102.825 L 62.340 102.460 62.388 96.057 L 62.437 89.655 64.276 89.713 C 84.997 90.359,92.021 84.622,92.039 67.034 C 92.053 52.884,87.692 47.523,74.965 46.048 C 72.350 45.745,55.874 45.493,55.353 45.748 M277.333 45.806 C 271.001 46.279,267.564 47.127,266.501 48.478 L 266.115 48.969 266.115 75.770 L 266.115 102.571 266.514 103.078 C 268.009 104.979,283.635 104.795,288.091 102.824 L 288.920 102.457 288.920 93.885 L 288.920 85.312 289.675 85.369 L 290.430 85.425 293.149 94.032 C 296.441 104.455,296.074 103.927,300.257 104.273 C 309.356 105.027,318.838 103.682,320.202 101.445 C 321.315 99.619,318.786 93.870,312.317 83.520 C 311.383 82.026,311.180 81.580,311.379 81.458 C 321.339 75.313,321.713 53.685,311.944 48.754 C 308.729 47.131,304.581 46.122,299.801 45.799 C 296.593 45.583,280.253 45.588,277.333 45.806 M119.264 46.532 C 113.362 46.850,108.318 47.532,106.633 48.238 C 105.973 48.515,105.938 48.581,105.221 50.882 C 104.816 52.180,102.500 59.572,100.072 67.310 C 92.160 92.536,90.299 98.849,90.299 100.468 C 90.299 102.850,95.715 104.344,104.368 104.348 C 113.491 104.352,114.892 103.630,115.320 98.702 C 115.427 97.469,115.553 96.274,115.600 96.046 C 115.685 95.632,115.688 95.632,119.610 95.632 L 123.536 95.632 123.748 97.609 C 124.200 101.821,124.140 101.563,124.803 102.190 C 127.149 104.413,140.776 105.265,146.135 103.524 C 149.109 102.559,149.249 101.997,147.782 96.892 C 144.335 84.893,133.521 48.912,133.189 48.339 C 132.232 46.685,127.595 46.083,119.264 46.532 M164.966 46.535 C 159.527 47.053,154.271 49.041,153.281 50.955 C 152.925 51.644,152.869 102.107,153.224 102.885 C 153.340 103.141,153.797 103.526,154.238 103.739 C 157.049 105.100,173.289 104.214,175.357 102.587 L 175.816 102.226 175.816 92.492 C 175.816 84.826,175.865 82.759,176.046 82.762 C 176.180 82.764,177.888 87.044,180.138 93.015 L 184.000 103.264 184.853 103.688 C 187.662 105.082,203.967 104.241,206.060 102.595 L 206.529 102.226 206.529 76.526 C 206.529 48.281,206.586 49.735,205.413 48.317 C 202.628 44.949,188.009 46.384,184.399 50.380 L 183.724 51.127 183.724 61.165 C 183.724 69.114,183.676 71.187,183.494 71.127 C 183.368 71.085,181.479 66.257,179.296 60.399 C 174.442 47.368,174.646 47.783,172.640 46.896 C 171.597 46.435,167.866 46.259,164.966 46.535 M214.437 46.475 C 211.315 47.623,210.061 64.054,212.880 66.873 L 213.317 67.310 219.118 67.310 L 224.920 67.310 224.920 85.158 L 224.920 103.005 225.352 103.438 C 226.873 104.958,244.819 104.516,247.290 102.897 L 247.724 102.612 247.724 84.961 L 247.724 67.310 252.883 67.310 C 257.083 67.310,258.139 67.260,258.569 67.038 C 261.390 65.579,262.352 47.960,259.688 46.534 C 259.317 46.336,214.973 46.278,214.437 46.475 M336.920 46.452 C 336.566 46.493,335.498 46.618,334.548 46.729 C 329.901 47.270,323.957 49.374,322.745 50.907 C 321.713 52.212,324.234 58.289,335.339 81.271 L 338.575 87.967 338.575 95.306 C 338.575 103.443,338.539 103.198,339.816 103.763 C 342.906 105.130,359.303 104.162,360.949 102.516 L 361.379 102.086 361.379 94.881 L 361.379 87.677 365.591 78.551 C 372.639 63.280,376.486 54.632,377.411 51.981 C 378.117 49.960,376.819 47.976,374.215 47.097 C 369.104 45.370,355.906 47.233,353.056 50.083 C 352.239 50.900,352.348 50.070,351.543 61.609 C 350.698 73.737,350.781 73.011,350.235 73.011 C 349.992 73.011,349.788 72.991,349.783 72.966 C 349.777 72.940,349.252 67.789,348.615 61.517 C 347.264 48.200,347.372 48.627,345.063 47.468 C 343.450 46.658,339.445 46.159,336.920 46.452 M293.017 58.731 C 294.970 59.552,295.817 61.566,295.814 65.379 C 295.810 70.702,294.393 72.668,290.524 72.717 L 289.011 72.736 288.963 65.609 L 288.915 58.483 290.670 58.483 C 291.731 58.483,292.660 58.581,293.017 58.731 M66.865 59.630 C 69.816 61.198,70.122 72.699,67.283 75.345 C 66.734 75.857,65.558 76.128,63.862 76.133 L 62.529 76.138 62.529 67.657 L 62.529 59.177 64.414 59.253 C 65.679 59.304,66.485 59.428,66.865 59.630 M120.644 65.793 C 120.644 65.970,120.892 69.053,121.195 72.644 C 121.499 76.234,121.747 79.400,121.747 79.678 L 121.747 80.184 119.515 80.184 L 117.283 80.184 117.386 79.402 C 117.443 78.972,117.763 75.662,118.097 72.046 L 118.704 65.471 119.674 65.471 C 120.475 65.471,120.644 65.527,120.644 65.793 M84.506 117.445 C 75.739 117.957,71.643 118.752,70.170 120.225 L 69.701 120.694 69.701 147.419 C 69.701 176.746,69.619 174.830,70.903 175.451 C 73.523 176.720,88.020 176.084,91.491 174.549 L 92.317 174.184 92.365 167.782 L 92.414 161.379 94.253 161.437 C 114.974 162.083,121.998 156.346,122.016 138.759 C 122.030 124.608,117.669 119.247,104.942 117.772 C 102.660 117.508,87.570 117.266,84.506 117.445 M194.207 117.530 C 187.875 118.003,184.437 118.851,183.374 120.203 L 182.989 120.693 182.989 147.494 L 182.989 174.295 183.387 174.802 C 184.883 176.703,200.508 176.519,204.965 174.548 L 205.793 174.182 205.793 165.609 L 205.793 157.036 206.548 157.093 L 207.303 157.149 210.022 165.756 C 213.315 176.179,212.948 175.651,217.131 175.998 C 226.230 176.751,235.711 175.407,237.076 173.169 C 238.189 171.343,235.660 165.594,229.190 155.244 C 228.257 153.751,228.054 153.304,228.252 153.182 C 238.213 147.037,238.586 125.409,228.817 120.478 C 225.603 118.855,221.454 117.846,216.675 117.523 C 213.467 117.307,197.126 117.312,194.207 117.530 M149.241 118.256 C 143.339 118.574,138.295 119.256,136.610 119.963 C 135.948 120.241,135.917 120.300,135.169 122.698 C 134.748 124.046,132.431 131.439,130.020 139.126 C 122.152 164.209,120.276 170.575,120.276 172.192 C 120.276 174.574,125.692 176.068,134.345 176.072 C 143.468 176.076,144.869 175.354,145.297 170.427 C 145.404 169.193,145.530 167.998,145.577 167.770 C 145.662 167.357,145.665 167.356,149.587 167.356 L 153.513 167.356 153.725 169.333 C 154.177 173.545,154.117 173.287,154.780 173.915 C 157.126 176.137,170.753 176.989,176.112 175.248 C 179.086 174.283,179.226 173.721,177.759 168.616 C 174.307 156.598,163.497 120.629,163.168 120.063 C 162.205 118.409,157.572 117.808,149.241 118.256 M242.943 118.199 C 239.821 119.347,238.567 135.779,241.385 138.597 L 241.822 139.034 247.624 139.034 L 253.425 139.034 253.425 156.882 L 253.425 174.729 253.858 175.162 C 255.378 176.682,273.325 176.240,275.795 174.621 L 276.230 174.336 276.230 156.685 L 276.230 139.034 281.388 139.034 C 285.589 139.034,286.645 138.984,287.075 138.762 C 289.896 137.303,290.858 119.684,288.194 118.258 C 287.823 118.060,243.479 118.002,242.943 118.199 M306.943 118.176 C 306.589 118.218,305.521 118.342,304.571 118.453 C 299.924 118.994,293.980 121.099,292.768 122.631 C 291.736 123.936,294.257 130.013,305.362 152.995 L 308.598 159.691 308.598 167.030 C 308.598 175.167,308.562 174.923,309.839 175.487 C 312.929 176.854,329.326 175.886,330.972 174.240 L 331.402 173.810 331.402 166.606 L 331.402 159.401 335.614 150.275 C 342.662 135.005,346.509 126.356,347.434 123.705 C 348.140 121.684,346.842 119.700,344.238 118.821 C 339.127 117.095,325.929 118.957,323.079 121.807 C 322.262 122.624,322.371 121.794,321.566 133.333 C 320.721 145.462,320.804 144.736,320.258 144.736 C 320.015 144.736,319.811 144.715,319.806 144.690 C 319.800 144.664,319.275 139.513,318.638 133.241 C 317.287 119.925,317.395 120.351,315.086 119.192 C 313.473 118.383,309.468 117.883,306.943 118.176 M209.891 130.456 C 211.843 131.276,212.691 133.290,212.688 137.103 C 212.684 142.426,211.266 144.392,207.397 144.441 L 205.885 144.460 205.837 137.333 L 205.789 130.207 207.544 130.207 C 208.605 130.207,209.533 130.305,209.891 130.456 M96.842 131.354 C 99.793 132.922,100.099 144.424,97.260 147.069 C 96.711 147.581,95.535 147.852,93.839 147.858 L 92.506 147.862 92.506 139.381 L 92.506 130.901 94.391 130.977 C 95.656 131.028,96.462 131.152,96.842 131.354 M150.621 137.517 C 150.621 137.694,150.869 140.777,151.172 144.368 C 151.476 147.959,151.724 151.124,151.724 151.402 L 151.724 151.908 149.492 151.908 L 147.260 151.908 147.364 151.126 C 147.420 150.697,147.740 147.386,148.074 143.770 L 148.681 137.195 149.651 137.195 C 150.452 137.195,150.621 137.251,150.621 137.517 " stroke="none" fill="#ec1c24" fill-rule="evenodd"></path><path id="path3" d="M38.001 28.000 C 37.751 28.329,37.484 28.846,37.409 29.149 C 36.770 31.726,33.318 37.132,31.386 38.582 C 29.997 39.625,24.998 41.732,23.371 41.961 C 22.741 42.049,22.683 42.445,23.279 42.595 C 25.310 43.105,31.758 40.640,34.051 38.477 C 36.374 36.285,40.276 29.997,40.276 28.445 C 40.276 27.319,38.746 27.021,38.001 28.000 M40.102 49.098 C 39.647 49.378,40.147 50.100,42.171 52.085 C 44.603 54.470,45.591 54.853,45.757 53.477 C 45.850 52.708,40.706 48.724,40.102 49.098 M33.209 50.146 C 33.093 50.449,34.755 52.185,38.945 56.138 C 40.545 57.647,41.183 57.905,41.563 57.195 C 41.904 56.558,40.401 54.911,37.422 52.658 C 36.611 52.044,35.829 51.400,35.685 51.227 C 34.852 50.223,33.419 49.598,33.209 50.146 " stroke="none" fill="#101010" fill-rule="evenodd"></path></g></svg>